<svg id="visual" viewBox="0 0 960 540" width="960" height="540" xmlns="http://www.w3.org/2000/svg" xmlns:xlink="http://www.w3.org/1999/xlink" version="1.1"><rect x="0" y="0" width="960" height="540" fill="#fde8e8"></rect><defs><linearGradient id="grad1_0" x1="43.8%" y1="0%" x2="100%" y2="100%"><stop offset="14.444444444444446%" stop-color="#efadad" stop-opacity="1"></stop><stop offset="85.55555555555554%" stop-color="#efadad" stop-opacity="1"></stop></linearGradient></defs><defs><linearGradient id="grad1_1" x1="43.8%" y1="0%" x2="100%" y2="100%"><stop offset="14.444444444444446%" stop-color="#efadad" stop-opacity="1"></stop><stop offset="85.55555555555554%" stop-color="#f2b7b7" stop-opacity="1"></stop></linearGradient></defs><defs><linearGradient id="grad1_2" x1="43.8%" y1="0%" x2="100%" y2="100%"><stop offset="14.444444444444446%" stop-color="#f4c1c1" stop-opacity="1"></stop><stop offset="85.55555555555554%" stop-color="#f2b7b7" stop-opacity="1"></stop></linearGradient></defs><defs><linearGradient id="grad1_3" x1="43.8%" y1="0%" x2="100%" y2="100%"><stop offset="14.444444444444446%" stop-color="#f4c1c1" stop-opacity="1"></stop><stop offset="85.55555555555554%" stop-color="#f7caca" stop-opacity="1"></stop></linearGradient></defs><defs><linearGradient id="grad1_4" x1="43.8%" y1="0%" x2="100%" y2="100%"><stop offset="14.444444444444446%" stop-color="#f9d4d4" stop-opacity="1"></stop><stop offset="85.55555555555554%" stop-color="#f7caca" stop-opacity="1"></stop></linearGradient></defs><defs><linearGradient id="grad1_5" x1="43.8%" y1="0%" x2="100%" y2="100%"><stop offset="14.444444444444446%" stop-color="#f9d4d4" stop-opacity="1"></stop><stop offset="85.55555555555554%" stop-color="#fbdede" stop-opacity="1"></stop></linearGradient></defs><defs><linearGradient id="grad1_6" x1="43.8%" y1="0%" x2="100%" y2="100%"><stop offset="14.444444444444446%" stop-color="#fde8e8" stop-opacity="1"></stop><stop offset="85.55555555555554%" stop-color="#fbdede" stop-opacity="1"></stop></linearGradient></defs><defs><linearGradient id="grad2_0" x1="0%" y1="0%" x2="56.3%" y2="100%"><stop offset="14.444444444444446%" stop-color="#efadad" stop-opacity="1"></stop><stop offset="85.55555555555554%" stop-color="#efadad" stop-opacity="1"></stop></linearGradient></defs><defs><linearGradient id="grad2_1" x1="0%" y1="0%" x2="56.3%" y2="100%"><stop offset="14.444444444444446%" stop-color="#f2b7b7" stop-opacity="1"></stop><stop offset="85.55555555555554%" stop-color="#efadad" stop-opacity="1"></stop></linearGradient></defs><defs><linearGradient id="grad2_2" x1="0%" y1="0%" x2="56.3%" y2="100%"><stop offset="14.444444444444446%" stop-color="#f2b7b7" stop-opacity="1"></stop><stop offset="85.55555555555554%" stop-color="#f4c1c1" stop-opacity="1"></stop></linearGradient></defs><defs><linearGradient id="grad2_3" x1="0%" y1="0%" x2="56.3%" y2="100%"><stop offset="14.444444444444446%" stop-color="#f7caca" stop-opacity="1"></stop><stop offset="85.55555555555554%" stop-color="#f4c1c1" stop-opacity="1"></stop></linearGradient></defs><defs><linearGradient id="grad2_4" x1="0%" y1="0%" x2="56.3%" y2="100%"><stop offset="14.444444444444446%" stop-color="#f7caca" stop-opacity="1"></stop><stop offset="85.55555555555554%" stop-color="#f9d4d4" stop-opacity="1"></stop></linearGradient></defs><defs><linearGradient id="grad2_5" x1="0%" y1="0%" x2="56.3%" y2="100%"><stop offset="14.444444444444446%" stop-color="#fbdede" stop-opacity="1"></stop><stop offset="85.55555555555554%" stop-color="#f9d4d4" stop-opacity="1"></stop></linearGradient></defs><defs><linearGradient id="grad2_6" x1="0%" y1="0%" x2="56.3%" y2="100%"><stop offset="14.444444444444446%" stop-color="#fbdede" stop-opacity="1"></stop><stop offset="85.55555555555554%" stop-color="#fde8e8" stop-opacity="1"></stop></linearGradient></defs><g transform="translate(960, 0)"><path d="M0 540C-40.8 483.5 -81.7 426.9 -134.7 414.7C-187.8 402.4 -253.1 434.3 -309.8 426.4C-366.4 418.4 -414.5 370.5 -436.9 317.4C-459.3 264.3 -456 206.1 -468.9 152.3C-481.8 98.6 -510.9 49.3 -540 0L0 0Z" fill="#fce3e3"></path><path d="M0 462.9C-35 414.4 -70 366 -115.5 355.4C-161 344.9 -216.9 372.3 -265.5 365.4C-314.1 358.6 -355.3 317.5 -374.5 272.1C-393.6 226.6 -390.8 176.7 -401.9 130.6C-413 84.5 -437.9 42.3 -462.9 0L0 0Z" fill="#fad9d9"></path><path d="M0 385.7C-29.2 345.3 -58.3 305 -96.2 296.2C-134.1 287.4 -180.8 310.2 -221.3 304.5C-261.7 298.8 -296.1 264.6 -312 226.7C-328 188.8 -325.7 147.2 -334.9 108.8C-344.1 70.4 -364.9 35.2 -385.7 0L0 0Z" fill="#f8cfcf"></path><path d="M0 308.6C-23.3 276.3 -46.7 244 -77 236.9C-107.3 229.9 -144.6 248.2 -177 243.6C-209.4 239.1 -236.9 211.7 -249.6 181.4C-262.4 151 -260.5 117.8 -267.9 87.1C-275.3 56.3 -291.9 28.2 -308.6 0L0 0Z" fill="#f6c5c5"></path><path d="M0 231.4C-17.5 207.2 -35 183 -57.7 177.7C-80.5 172.4 -108.5 186.1 -132.8 182.7C-157 179.3 -177.6 158.8 -187.2 136C-196.8 113.3 -195.4 88.3 -200.9 65.3C-206.5 42.3 -219 21.1 -231.4 0L0 0Z" fill="#f3bcbc"></path><path d="M0 154.3C-11.7 138.1 -23.3 122 -38.5 118.5C-53.7 115 -72.3 124.1 -88.5 121.8C-104.7 119.5 -118.4 105.8 -124.8 90.7C-131.2 75.5 -130.3 58.9 -134 43.5C-137.7 28.2 -146 14.1 -154.3 0L0 0Z" fill="#f0b2b2"></path><path d="M0 77.1C-5.8 69.1 -11.7 61 -19.2 59.2C-26.8 57.5 -36.2 62 -44.3 60.9C-52.3 59.8 -59.2 52.9 -62.4 45.3C-65.6 37.8 -65.1 29.4 -67 21.8C-68.8 14.1 -73 7 -77.1 0L0 0Z" fill="#efadad"></path></g><g transform="translate(0, 540)"><path d="M0 -540C54.6 -533 109.1 -525.9 166.6 -512.6C224 -499.3 284.3 -479.8 317.4 -436.9C350.6 -393.9 356.6 -327.6 385.9 -280.4C415.2 -233.2 467.8 -205.2 497.4 -161.6C527 -118.1 533.5 -59 540 0L0 0Z" fill="#fce3e3"></path><path d="M0 -462.9C46.8 -456.8 93.5 -450.8 142.8 -439.4C192 -428 243.6 -411.3 272.1 -374.5C300.5 -337.7 305.6 -280.8 330.8 -240.3C355.9 -199.9 401 -175.8 426.3 -138.5C451.7 -101.2 457.3 -50.6 462.9 0L0 0Z" fill="#fad9d9"></path><path d="M0 -385.7C39 -380.7 78 -375.6 119 -366.2C160 -356.7 203 -342.7 226.7 -312C250.4 -281.4 254.7 -234 275.6 -200.3C296.6 -166.6 334.2 -146.5 355.3 -115.4C376.4 -84.3 381.1 -42.2 385.7 0L0 0Z" fill="#f8cfcf"></path><path d="M0 -308.6C31.2 -304.5 62.4 -300.5 95.2 -292.9C128 -285.3 162.4 -274.2 181.4 -249.6C200.3 -225.1 203.8 -187.2 220.5 -160.2C237.3 -133.2 267.3 -117.2 284.2 -92.4C301.1 -67.5 304.8 -33.7 308.6 0L0 0Z" fill="#f6c5c5"></path><path d="M0 -231.4C23.4 -228.4 46.8 -225.4 71.4 -219.7C96 -214 121.8 -205.6 136 -187.2C150.2 -168.8 152.8 -140.4 165.4 -120.2C178 -99.9 200.5 -87.9 213.2 -69.3C225.8 -50.6 228.6 -25.3 231.4 0L0 0Z" fill="#f3bcbc"></path><path d="M0 -154.3C15.6 -152.3 31.2 -150.3 47.6 -146.5C64 -142.7 81.2 -137.1 90.7 -124.8C100.2 -112.6 101.9 -93.6 110.3 -80.1C118.6 -66.6 133.7 -58.6 142.1 -46.2C150.6 -33.7 152.4 -16.9 154.3 0L0 0Z" fill="#f0b2b2"></path><path d="M0 -77.1C7.8 -76.1 15.6 -75.1 23.8 -73.2C32 -71.3 40.6 -68.5 45.3 -62.4C50.1 -56.3 50.9 -46.8 55.1 -40.1C59.3 -33.3 66.8 -29.3 71.1 -23.1C75.3 -16.9 76.2 -8.4 77.1 0L0 0Z" fill="#efadad"></path></g></svg>