<svg id="visual" viewBox="0 0 960 540" width="960" height="540" xmlns="http://www.w3.org/2000/svg" xmlns:xlink="http://www.w3.org/1999/xlink" version="1.1"><rect x="0" y="0" width="960" height="540" fill="#f9efef"></rect><defs><linearGradient id="grad1_0" x1="43.8%" y1="0%" x2="100%" y2="100%"><stop offset="14.444444444444446%" stop-color="#e9cfcf" stop-opacity="1"></stop><stop offset="85.55555555555554%" stop-color="#e9cfcf" stop-opacity="1"></stop></linearGradient></defs><defs><linearGradient id="grad1_1" x1="43.8%" y1="0%" x2="100%" y2="100%"><stop offset="14.444444444444446%" stop-color="#e9cfcf" stop-opacity="1"></stop><stop offset="85.55555555555554%" stop-color="#ecd5d5" stop-opacity="1"></stop></linearGradient></defs><defs><linearGradient id="grad1_2" x1="43.8%" y1="0%" x2="100%" y2="100%"><stop offset="14.444444444444446%" stop-color="#efdcdc" stop-opacity="1"></stop><stop offset="85.55555555555554%" stop-color="#ecd5d5" stop-opacity="1"></stop></linearGradient></defs><defs><linearGradient id="grad1_3" x1="43.8%" y1="0%" x2="100%" y2="100%"><stop offset="14.444444444444446%" stop-color="#efdcdc" stop-opacity="1"></stop><stop offset="85.55555555555554%" stop-color="#f3e2e2" stop-opacity="1"></stop></linearGradient></defs><defs><linearGradient id="grad1_4" x1="43.8%" y1="0%" x2="100%" y2="100%"><stop offset="14.444444444444446%" stop-color="#f6e9e9" stop-opacity="1"></stop><stop offset="85.55555555555554%" stop-color="#f3e2e2" stop-opacity="1"></stop></linearGradient></defs><defs><linearGradient id="grad1_5" x1="43.8%" y1="0%" x2="100%" y2="100%"><stop offset="14.444444444444446%" stop-color="#f6e9e9" stop-opacity="1"></stop><stop offset="85.55555555555554%" stop-color="#f9efef" stop-opacity="1"></stop></linearGradient></defs><defs><linearGradient id="grad2_0" x1="0%" y1="0%" x2="56.3%" y2="100%"><stop offset="14.444444444444446%" stop-color="#e9cfcf" stop-opacity="1"></stop><stop offset="85.55555555555554%" stop-color="#e9cfcf" stop-opacity="1"></stop></linearGradient></defs><defs><linearGradient id="grad2_1" x1="0%" y1="0%" x2="56.3%" y2="100%"><stop offset="14.444444444444446%" stop-color="#ecd5d5" stop-opacity="1"></stop><stop offset="85.55555555555554%" stop-color="#e9cfcf" stop-opacity="1"></stop></linearGradient></defs><defs><linearGradient id="grad2_2" x1="0%" y1="0%" x2="56.3%" y2="100%"><stop offset="14.444444444444446%" stop-color="#ecd5d5" stop-opacity="1"></stop><stop offset="85.55555555555554%" stop-color="#efdcdc" stop-opacity="1"></stop></linearGradient></defs><defs><linearGradient id="grad2_3" x1="0%" y1="0%" x2="56.3%" y2="100%"><stop offset="14.444444444444446%" stop-color="#f3e2e2" stop-opacity="1"></stop><stop offset="85.55555555555554%" stop-color="#efdcdc" stop-opacity="1"></stop></linearGradient></defs><defs><linearGradient id="grad2_4" x1="0%" y1="0%" x2="56.3%" y2="100%"><stop offset="14.444444444444446%" stop-color="#f3e2e2" stop-opacity="1"></stop><stop offset="85.55555555555554%" stop-color="#f6e9e9" stop-opacity="1"></stop></linearGradient></defs><defs><linearGradient id="grad2_5" x1="0%" y1="0%" x2="56.3%" y2="100%"><stop offset="14.444444444444446%" stop-color="#f9efef" stop-opacity="1"></stop><stop offset="85.55555555555554%" stop-color="#f6e9e9" stop-opacity="1"></stop></linearGradient></defs><g transform="translate(960, 0)"><path d="M0 378C-30.5 349 -61 320 -101 311C-141.1 301.9 -190.8 312.8 -210.4 289.6C-230.1 266.4 -219.8 209.2 -245.1 178.1C-270.5 147 -331.4 142.1 -359.5 116.8C-387.6 91.5 -382.8 45.7 -378 0L0 0Z" fill="#f7ecec"></path><path d="M0 315C-25.4 290.9 -50.8 266.7 -84.2 259.2C-117.6 251.6 -159 260.7 -175.4 241.4C-191.7 222 -183.2 174.3 -204.3 148.4C-225.4 122.5 -276.2 118.4 -299.6 97.3C-323 76.2 -319 38.1 -315 0L0 0Z" fill="#f4e5e5"></path><path d="M0 252C-20.3 232.7 -40.7 213.4 -67.4 207.3C-94.1 201.3 -127.2 208.5 -140.3 193.1C-153.4 177.6 -146.5 139.5 -163.4 118.7C-180.3 98 -220.9 94.8 -239.7 77.9C-258.4 61 -255.2 30.5 -252 0L0 0Z" fill="#f1dfdf"></path><path d="M0 189C-15.2 174.5 -30.5 160 -50.5 155.5C-70.6 151 -95.4 156.4 -105.2 144.8C-115 133.2 -109.9 104.6 -122.6 89C-135.2 73.5 -165.7 71.1 -179.7 58.4C-193.8 45.7 -191.4 22.9 -189 0L0 0Z" fill="#eed9d9"></path><path d="M0 126C-10.2 116.3 -20.3 106.7 -33.7 103.7C-47 100.6 -63.6 104.3 -70.1 96.5C-76.7 88.8 -73.3 69.7 -81.7 59.4C-90.2 49 -110.5 47.4 -119.8 38.9C-129.2 30.5 -127.6 15.2 -126 0L0 0Z" fill="#ebd2d2"></path><path d="M0 63C-5.1 58.2 -10.2 53.3 -16.8 51.8C-23.5 50.3 -31.8 52.1 -35.1 48.3C-38.3 44.4 -36.6 34.9 -40.9 29.7C-45.1 24.5 -55.2 23.7 -59.9 19.5C-64.6 15.2 -63.8 7.6 -63 0L0 0Z" fill="#e9cfcf"></path></g><g transform="translate(0, 540)"><path d="M0 -378C31.7 -347.3 63.3 -316.5 99.5 -306.2C135.7 -296 176.4 -306.1 215.7 -296.9C255.1 -287.7 293.1 -259 305.8 -222.2C318.5 -185.4 306 -140.4 313.8 -102C321.7 -63.6 349.8 -31.8 378 0L0 0Z" fill="#f7ecec"></path><path d="M0 -315C26.4 -289.4 52.8 -263.8 82.9 -255.2C113.1 -246.6 147 -255.1 179.8 -247.4C212.6 -239.7 244.2 -215.8 254.8 -185.2C265.5 -154.5 255 -117 261.5 -85C268.1 -53 291.5 -26.5 315 0L0 0Z" fill="#f4e5e5"></path><path d="M0 -252C21.1 -231.5 42.2 -211 66.3 -204.2C90.5 -197.3 117.6 -204.1 143.8 -197.9C170 -191.8 195.4 -172.7 203.9 -148.1C212.4 -123.6 204 -93.6 209.2 -68C214.4 -42.4 233.2 -21.2 252 0L0 0Z" fill="#f1dfdf"></path><path d="M0 -189C15.8 -173.6 31.7 -158.3 49.8 -153.1C67.8 -148 88.2 -153.1 107.9 -148.5C127.5 -143.8 146.5 -129.5 152.9 -111.1C159.3 -92.7 153 -70.2 156.9 -51C160.8 -31.8 174.9 -15.9 189 0L0 0Z" fill="#eed9d9"></path><path d="M0 -126C10.6 -115.8 21.1 -105.5 33.2 -102.1C45.2 -98.7 58.8 -102 71.9 -99C85 -95.9 97.7 -86.3 101.9 -74.1C106.2 -61.8 102 -46.8 104.6 -34C107.2 -21.2 116.6 -10.6 126 0L0 0Z" fill="#ebd2d2"></path><path d="M0 -63C5.3 -57.9 10.6 -52.8 16.6 -51C22.6 -49.3 29.4 -51 36 -49.5C42.5 -47.9 48.8 -43.2 51 -37C53.1 -30.9 51 -23.4 52.3 -17C53.6 -10.6 58.3 -5.3 63 0L0 0Z" fill="#e9cfcf"></path></g></svg>